<?xml version="1.0" encoding="utf-8"?>
<!-- Generator: Adobe Illustrator 26.0.1, SVG Export Plug-In . SVG Version: 6.00 Build 0)  -->
<svg version="1.1" id="Layer_1" xmlns="http://www.w3.org/2000/svg" xmlns:xlink="http://www.w3.org/1999/xlink" x="0px" y="0px"
	 viewBox="0 0 106.8 153" style="enable-background:new 0 0 106.8 153;" xml:space="preserve">
<style type="text/css">
	.st0{fill:#AF121D;}
	.st1{display:none;fill:#101820;}
	.st2{fill:#F4F5F0;}
</style>
<g>
	<path class="st0" d="M53.9,145.6c-7.3-12.4-43.2-74-43.2-95.6c0-23.8,19.4-43.1,43.1-43.1C77.7,6.9,97,26.2,97,50
		C97,71.6,61.2,133.2,53.9,145.6z"/>
	<path class="st1" d="M53.9,8.4c23,0,41.6,18.7,41.6,41.6c0,9.6-7.6,29.3-22,57.1c-7.8,15.1-15.7,28.8-19.7,35.5
		c-3.9-6.7-11.8-20.4-19.7-35.5c-14.4-27.7-22-47.5-22-57.1C12.2,27,30.9,8.4,53.9,8.4L53.9,8.4 M53.9,5.4L53.9,5.4
		C29.2,5.4,9.2,25.3,9.2,50s44.7,98.5,44.7,98.5S98.5,74.6,98.5,50C98.5,25.3,78.5,5.4,53.9,5.4L53.9,5.4z"/>
</g>
<circle class="st2" cx="53.9" cy="45.6" r="22.7"/>
</svg>
