<?xml version="1.0" encoding="utf-8"?>
<!-- Generator: Adobe Illustrator 26.0.2, SVG Export Plug-In . SVG Version: 6.00 Build 0)  -->
<svg version="1.1" id="Layer_1" xmlns="http://www.w3.org/2000/svg" xmlns:xlink="http://www.w3.org/1999/xlink" x="0px" y="0px"
	 viewBox="0 0 466 236" style="enable-background:new 0 0 466 236;" xml:space="preserve">
<style type="text/css">
	.st0{fill:#F4F5F0;}
	.st1{enable-background:new    ;}
</style>
<path class="st0" d="M94.7,167.4"/>
<g class="st1">
	<path class="st0" d="M214.3,83.3c-13.6,0-21.9-9-21.9-20c0-10.8,8.4-20,22-20c13.5,0,21.8,9.2,21.8,20
		C236.2,74.3,227.9,83.3,214.3,83.3z M214.4,52.2c-7,0-11.3,5.1-11.3,11c0,6.1,4.3,11.1,11.2,11.1c7,0,11.3-5,11.3-11.1
		C225.7,57.5,221.5,52.2,214.4,52.2z"/>
	<path class="st0" d="M243,63.4c0-11.6,8-20,19.1-20c6,0,11.2,2.6,14.1,6.8V30.3h10.4v52.6h-10.4l0.1-6.4c-3.1,4.3-8.4,6.9-14.2,6.9
		C251,83.4,243,74.9,243,63.4z M276.7,63.1c0-6.2-5-10.9-11.5-10.9c-6.7,0-11.5,4.6-11.5,10.9c0,6.5,4.8,11.3,11.5,11.3
		C271.8,74.4,276.7,69.6,276.7,63.1z"/>
	<path class="st0" d="M295.5,63.3c0-11.6,8.8-20.1,21.1-20.1c13.6,0,22.6,9.8,21.1,23.5l-31.4-0.1c0.5,4.9,5,8.4,10.6,8.4
		c4.2,0,7.5-1.2,10.7-4.6l8.1,4.7c-3.9,4.9-10.4,8.2-18.7,8.2C303.8,83.5,295.5,74.9,295.5,63.3z M327.4,59.5
		c-0.7-5.1-4.8-8.3-10.6-8.3c-5.5,0-9.8,3.4-10.5,8.3H327.4z"/>
</g>
<g class="st1">
	<path class="st0" d="M138.4,157.8c0-11.6,8-20,19.1-20c5.9,0,11.2,2.6,14.2,6.9l-0.1-6.4H182v38.9h-10.4l0.1-6.4
		c-3.1,4.3-8.4,7-14.2,7C146.5,177.8,138.4,169.4,138.4,157.8z M172.2,157.6c0-6.2-5-10.9-11.5-10.9c-6.7,0-11.5,4.6-11.5,10.9
		c0,6.5,4.8,11.3,11.5,11.3C167.3,168.9,172.2,164,172.2,157.6z"/>
</g>
<g class="st1">
	<path class="st0" d="M202.7,160v17.3h-10.4v-38.8h10.4l-0.3,6.4c2.1-4.4,6.6-7.8,14-7v9.5C206.4,146.5,202.7,152.3,202.7,160z"/>
</g>
<path class="st0" d="M240.4,177.8c-13.6,0-21.9-9-21.9-20c0-10.8,8.4-20,22-20c13.5,0,21.8,9.2,21.8,20
	C262.3,168.8,254,177.8,240.4,177.8z M240.5,146.7c-7,0-11.3,5.1-11.3,11c0,6.1,4.3,11.1,11.2,11.1c7,0,11.3-5,11.3-11.1
	C251.7,152,247.6,146.7,240.5,146.7z"/>
<path class="st0" d="M269.9,124.8h10.2l0.2,52.5h-10.4L269.9,124.8L269.9,124.8z"/>
<path class="st0" d="M288.9,126.3c0-3.3,2.9-5.6,6.5-5.6s6.5,2.3,6.5,5.6c0,3.3-2.9,5.5-6.5,5.5
	C291.8,131.9,288.9,129.7,288.9,126.3z M290.3,138.5h10.4v38.8h-10.4V138.5z"/>
<path class="st0" d="M339.2,157.8c0-7.4-2.3-11-8.4-11c-6.5,0-9.8,4.1-9.8,10.7v19.7h-10.4v-38.9H321v5.5c2.4-3.4,6.8-5.9,12.3-5.9
	c11.4,0,16.6,6.7,16.6,19.5v19.8h-10.7V157.8z"/>
<path class="st0" d="M356.9,157.8c0-11.6,8-20,19.1-20c5.9,0,11.2,2.6,14.2,6.9l-0.1-6.4h10.4v38.9h-10.4l0.1-6.4
	c-3.1,4.3-8.4,7-14.2,7C364.9,177.8,356.9,169.4,356.9,157.8z M390.6,157.6c0-6.2-5-10.9-11.5-10.9c-6.7,0-11.5,4.6-11.5,10.9
	c0,6.5,4.8,11.3,11.5,11.3C385.7,168.9,390.6,164,390.6,157.6z"/>
<path class="st0" d="M423.2,178c-6.3,0.1-11.9-2.4-16.2-5.8l5.8-6.5c2.7,2.4,6.5,4.1,9.5,4.1c2.8,0,4.8-1.4,4.8-3.5
	c0-2.3-1.4-3.4-5.2-4.3c-9-2-13.5-5.9-13.5-12.3c0-6.7,5.7-11.6,13.9-11.7c5.3-0.1,10.7,2.2,14.1,5.7l-5.7,5.6c-2-1.9-5-3.1-7.5-3.1
	c-3,0-4.9,1.4-4.9,3.4c0,2.1,1.5,3.2,5.3,4c9,1.8,13.7,6.2,13.7,12.9C437.4,173.1,431.5,177.9,423.2,178z"/>
<polygon class="st0" points="143.2,215.2 127.5,212.5 125.8,198.7 117.6,190.7 115.4,176.9 103.7,169.7 104.1,163.2 96.3,159.8 
	94.8,150.5 88.1,148.8 85.4,139.1 72.4,133.5 61.6,113.7 45,104.9 45.3,91.3 70.1,72.4 127.5,70.4 144.1,83.5 176.6,82.7 
	176.9,92.7 140.7,93.6 124.2,80.5 73.6,82.2 55.2,96.4 55.1,99 68.9,106.3 79.5,125.7 93.7,131.8 96.2,140.5 103.7,142.5 
	105.3,152.8 114.4,156.9 114,164.3 124.6,170.7 126.9,185.9 135.3,194 136.5,203.9 144.9,205.4 "/>
<polygon class="st0" points="207,125.4 174.3,92.7 141.4,93.6 125,81.2 73.3,81.5 65.2,86 12.3,87.2 19.9,62.6 29,62.4 36.8,54.4 
	47.9,53.6 61.6,45.8 69,37 79.3,37.6 88.2,31.8 94.5,32 107.6,18.4 210.3,16.2 210.5,26.2 111.9,28.3 98.7,42.1 91.1,41.9 
	81.9,47.8 73.4,47.3 68.1,53.6 50.9,63.4 41.3,64.1 33.3,72.3 27.3,72.4 26,76.9 62.5,76.1 70.6,71.6 128.4,71.2 144.7,83.5 
	178.4,82.6 214.1,118.3 "/>
<g class="st1">
	<path class="st0" d="M368.3,54.7V38.3h-2.7v-4.9h2.7c0-6.5,3.2-8.5,10.9-8.2l0.1,4.6c-4.2-0.4-5.5,0.8-5.5,3.6h5v4.9H374v16.3
		L368.3,54.7z"/>
</g>
<g class="st1">
	<path class="st0" d="M392.6,54.9c-7.4,0-11.9-4.9-11.9-10.9c0-5.9,4.6-10.9,12-10.9s11.9,5,11.9,10.9C404.5,50,400,54.9,392.6,54.9
		z M392.6,38c-3.8,0-6.2,2.8-6.2,6c0,3.3,2.4,6.1,6.1,6.1c3.8,0,6.2-2.7,6.2-6.1C398.8,40.9,396.5,38,392.6,38z"/>
	<path class="st0" d="M415.2,45.2v9.5h-5.7V33.5h5.7L415,37c1.1-2.4,3.6-4.2,7.7-3.8v5.2C417.2,37.9,415.2,41,415.2,45.2z"/>
</g>
<g class="st1">
	<path class="st0" d="M368,85.1V79h-2.9v-4.8h2.9v-3.5l5.7-2.5v6h6.6V79h-6.6v6.1c0,4,1.1,5.8,6.6,5.2v5.2
		C371.7,96.4,368,93.2,368,85.1z"/>
	<path class="st0" d="M400.9,84.9c0-3.8-1.4-5.9-4.6-5.9c-3.4,0-5.3,2.2-5.3,5.4v10.9h-5.7V66.6h5.7v10.9c1.4-2,4-3.7,7-3.7
		c6,0,8.8,3.8,8.8,10.9v10.5h-5.9V84.9z"/>
	<path class="st0" d="M411.4,84.6c0-6.3,4.8-10.9,11.5-10.9c7.4,0,12.3,5.4,11.5,12.8h-17.1c0.3,2.7,2.7,4.6,5.8,4.6
		c2.3,0,4.1-0.6,5.8-2.5l4.4,2.6c-2.1,2.7-5.7,4.5-10.2,4.5C416,95.6,411.4,91,411.4,84.6z M428.8,82.5c-0.4-2.8-2.6-4.5-5.8-4.5
		c-3,0-5.3,1.9-5.7,4.5H428.8z"/>
</g>
</svg>
