<svg id="Layer_1" data-name="Layer 1" xmlns="http://www.w3.org/2000/svg" viewBox="0 0 466 236"><defs><style>.cls-1,.cls-4,.cls-5{font-size:77px;}.cls-1{fill:#002868;}.cls-1,.cls-4,.cls-5,.cls-6{font-family:RegulatorNova-Bold, Regulator Nova;font-weight:700;}.cls-1,.cls-5{letter-spacing:-0.02em;}.cls-2{letter-spacing:-0.04em;}.cls-3,.cls-4,.cls-5,.cls-6{fill:#f4f5f0;}.cls-6{font-size:42px;}.cls-7{letter-spacing:-0.03em;}</style></defs><text class="cls-1" transform="translate(-350.87 177.31)">a<tspan class="cls-2" x="51.44" y="0">r</tspan><tspan x="80.08" y="0">olinas</tspan></text><path class="cls-3" d="M94.72,167.38Z"/><text class="cls-4" transform="translate(189.13 82.77)">ode</text><text class="cls-5" transform="translate(135.13 177.31)">a<tspan class="cls-2" x="51.44" y="0">r</tspan><tspan x="80.08" y="0">olinas</tspan></text><polygon class="cls-3" points="143.21 215.2 127.53 212.51 125.78 198.72 117.56 190.68 115.4 176.85 103.73 169.73 104.09 163.23 96.28 159.76 94.85 150.52 88.13 148.75 85.36 139.07 72.42 133.5 61.59 113.74 44.95 104.91 45.27 91.34 70.07 72.36 127.48 70.36 144.05 83.54 176.65 82.65 176.95 92.65 140.69 93.64 124.15 80.48 73.61 82.25 55.15 96.37 55.09 98.97 68.92 106.31 79.53 125.68 93.67 131.77 96.18 140.53 103.74 142.51 105.33 152.84 114.44 156.89 114.04 164.3 124.57 170.73 126.93 185.86 135.26 194 136.52 203.9 144.91 205.35 143.21 215.2"/><polygon class="cls-3" points="207.04 125.41 174.33 92.7 141.44 93.63 125.03 81.18 73.28 81.54 65.22 86.03 12.27 87.15 19.92 62.61 28.99 62.38 36.8 54.4 47.89 53.59 61.57 45.75 69.02 36.99 79.28 37.6 88.23 31.82 94.52 31.99 107.59 18.36 210.28 16.25 210.49 26.25 111.94 28.28 98.68 42.11 91.05 41.9 81.95 47.78 73.4 47.27 68.06 53.56 50.89 63.4 41.3 64.09 33.31 72.28 27.33 72.43 25.95 76.86 62.52 76.09 70.64 71.56 128.36 71.16 144.67 83.54 178.36 82.58 214.11 118.34 207.04 125.41"/><text class="cls-6" transform="translate(364.13 54.66)"><tspan class="cls-7">f</tspan><tspan x="14.7" y="0">or</tspan></text><text class="cls-6" transform="translate(364.13 95.25)">the</text></svg>