<svg id="Layer_1" data-name="Layer 1" xmlns="http://www.w3.org/2000/svg" viewBox="0 0 700 458.22"><defs><style>.cls-1{fill:#f4f5f0;}.cls-2{fill:#002868;}.cls-3{fill:#af121d;}</style></defs><line class="cls-1" x1="423.53" y1="254.57" x2="461.67" y2="228.71"/><path class="cls-2" d="M655.39,108.46l-15.31-38.6-.21-61L209,13.28,182.86,40.52l-11.38-.31L153.63,51.73,131.37,50.4l-17,20L90.24,84.21,66.49,85.94,51,101.81l-21.2.53L8.44,170.86l84.05-1.76-13.94,8.21L77,215.66l35.78,19.82L134,276l24.68,11.15,5.44,20.42,12.66,3.57,2.39,17.58,14.33,6.68-.88,12.18L216.9,363l3.66,26.64,16.12,16.33,3.43,31.5,44.5,8.47,30.31-44.23,30.21-23.18,61.49-53,4.51-27,13.3-15.29,20.65-14,16.83-10.64h25l41.47-50.39,52.33-11.78,37.15-27.42-3.25-29.24ZM393.17,290l-4.26,25.56-55.63,48-32.4,24.87-25,36.43-18.34-3.49L255,397.24l-16.34-16.55-4-29.12-22.12-14,1-13.92-16.8-7.84L194,296.12l-14.26-4-5-18.66-26.94-12.17L127,221.54,96.54,204.66l.67-16.17,49.55-29.19,98.19-.68L278,183.71l65.37-1.84,79.33,79.33-11.07,7.51ZM572.58,178.58l-54.81,12.34-39.9,48.48H456.38l-15.32,9.68L354,165.41l-2.87-2.87-66.87,1.89-32.89-25-109.71.76h-.12l-2.12,1.25-14,7.82-90.79,1.91L44,121.1l15.27-.38L75.1,104.47,96,103l30.82-17.67,13-15.24,19,1.14,18.13-11.71,13.93.37L217.21,32.3l403.62-4.11L621,73.54l11.31,28.53-37.89,29,3.22,29Z"/><polygon class="cls-2" points="593.2 246.66 576.94 236.62 603.93 192.92 640.99 171.18 669.61 141.69 673.29 109.4 654.04 64.58 654.04 8.79 673.15 8.79 673.15 60.66 692.85 106.52 687.85 150.33 652.89 186.35 617.69 207 593.2 246.66"/><path class="cls-3" d="M424.43,108.12C422.15,104.25,411,85,411,78.31a13.46,13.46,0,0,1,26.91,0C437.87,85,426.71,104.25,424.43,108.12Z"/><circle class="cls-1" cx="424.43" cy="76.93" r="7.08"/><path class="cls-3" d="M153.5,175.68C151.22,171.81,140,152.6,140,145.87a13.46,13.46,0,0,1,26.91,0C166.94,152.6,155.78,171.81,153.5,175.68Z"/><circle class="cls-1" cx="153.5" cy="144.49" r="7.08"/><path class="cls-3" d="M489.53,210.47c-2.28-3.87-13.47-23.08-13.47-29.82a13.46,13.46,0,0,1,26.91,0C503,187.39,491.81,206.6,489.53,210.47Z"/><circle class="cls-1" cx="489.53" cy="179.28" r="7.08"/><path class="cls-3" d="M394.25,69.2c-2.28-3.87-13.47-23.08-13.47-29.82a13.46,13.46,0,0,1,26.91,0C407.69,46.12,396.53,65.33,394.25,69.2Z"/><circle class="cls-1" cx="394.25" cy="38.01" r="7.08"/><path class="cls-3" d="M363.94,100.89c-2.28-3.87-13.47-23.08-13.47-29.82a13.46,13.46,0,0,1,26.91,0C377.38,77.81,366.22,97,363.94,100.89Z"/><circle class="cls-1" cx="363.94" cy="69.7" r="7.08"/><path class="cls-3" d="M300.85,91.33c-2.28-3.87-13.47-23.08-13.47-29.82a13.46,13.46,0,0,1,26.91,0C314.29,68.25,303.13,87.46,300.85,91.33Z"/><circle class="cls-1" cx="300.85" cy="60.14" r="7.08"/><path class="cls-3" d="M153.5,101.1C151.22,97.24,140,78,140,71.29a13.46,13.46,0,0,1,26.91,0C166.94,78,155.78,97.24,153.5,101.1Z"/><circle class="cls-1" cx="153.5" cy="69.92" r="7.08"/></svg>